<svg xmlns="http://www.w3.org/2000/svg" viewBox="0 0 43 43" width="516" height="516">
<rect width="43" height="43" fill="#0a0a0a"/>
<rect x="3" y="3" width="1" height="1" fill="#e8e8e8"/>
<rect x="4" y="3" width="1" height="1" fill="#e8e8e8"/>
<rect x="5" y="3" width="1" height="1" fill="#e8e8e8"/>
<rect x="6" y="3" width="1" height="1" fill="#e8e8e8"/>
<rect x="7" y="3" width="1" height="1" fill="#e8e8e8"/>
<rect x="8" y="3" width="1" height="1" fill="#e8e8e8"/>
<rect x="9" y="3" width="1" height="1" fill="#e8e8e8"/>
<rect x="11" y="3" width="1" height="1" fill="#e8e8e8"/>
<rect x="12" y="3" width="1" height="1" fill="#e8e8e8"/>
<rect x="14" y="3" width="1" height="1" fill="#e8e8e8"/>
<rect x="15" y="3" width="1" height="1" fill="#e8e8e8"/>
<rect x="16" y="3" width="1" height="1" fill="#e8e8e8"/>
<rect x="19" y="3" width="1" height="1" fill="#e8e8e8"/>
<rect x="20" y="3" width="1" height="1" fill="#e8e8e8"/>
<rect x="21" y="3" width="1" height="1" fill="#e8e8e8"/>
<rect x="22" y="3" width="1" height="1" fill="#e8e8e8"/>
<rect x="23" y="3" width="1" height="1" fill="#e8e8e8"/>
<rect x="26" y="3" width="1" height="1" fill="#e8e8e8"/>
<rect x="27" y="3" width="1" height="1" fill="#e8e8e8"/>
<rect x="30" y="3" width="1" height="1" fill="#e8e8e8"/>
<rect x="33" y="3" width="1" height="1" fill="#e8e8e8"/>
<rect x="34" y="3" width="1" height="1" fill="#e8e8e8"/>
<rect x="35" y="3" width="1" height="1" fill="#e8e8e8"/>
<rect x="36" y="3" width="1" height="1" fill="#e8e8e8"/>
<rect x="37" y="3" width="1" height="1" fill="#e8e8e8"/>
<rect x="38" y="3" width="1" height="1" fill="#e8e8e8"/>
<rect x="39" y="3" width="1" height="1" fill="#e8e8e8"/>
<rect x="3" y="4" width="1" height="1" fill="#e8e8e8"/>
<rect x="9" y="4" width="1" height="1" fill="#e8e8e8"/>
<rect x="13" y="4" width="1" height="1" fill="#e8e8e8"/>
<rect x="14" y="4" width="1" height="1" fill="#e8e8e8"/>
<rect x="16" y="4" width="1" height="1" fill="#e8e8e8"/>
<rect x="19" y="4" width="1" height="1" fill="#e8e8e8"/>
<rect x="21" y="4" width="1" height="1" fill="#e8e8e8"/>
<rect x="22" y="4" width="1" height="1" fill="#e8e8e8"/>
<rect x="23" y="4" width="1" height="1" fill="#e8e8e8"/>
<rect x="26" y="4" width="1" height="1" fill="#e8e8e8"/>
<rect x="28" y="4" width="1" height="1" fill="#e8e8e8"/>
<rect x="30" y="4" width="1" height="1" fill="#e8e8e8"/>
<rect x="31" y="4" width="1" height="1" fill="#e8e8e8"/>
<rect x="33" y="4" width="1" height="1" fill="#e8e8e8"/>
<rect x="39" y="4" width="1" height="1" fill="#e8e8e8"/>
<rect x="3" y="5" width="1" height="1" fill="#e8e8e8"/>
<rect x="5" y="5" width="1" height="1" fill="#e8e8e8"/>
<rect x="6" y="5" width="1" height="1" fill="#e8e8e8"/>
<rect x="7" y="5" width="1" height="1" fill="#e8e8e8"/>
<rect x="9" y="5" width="1" height="1" fill="#e8e8e8"/>
<rect x="11" y="5" width="1" height="1" fill="#e8e8e8"/>
<rect x="12" y="5" width="1" height="1" fill="#e8e8e8"/>
<rect x="15" y="5" width="1" height="1" fill="#e8e8e8"/>
<rect x="16" y="5" width="1" height="1" fill="#e8e8e8"/>
<rect x="18" y="5" width="1" height="1" fill="#e8e8e8"/>
<rect x="21" y="5" width="1" height="1" fill="#e8e8e8"/>
<rect x="22" y="5" width="1" height="1" fill="#e8e8e8"/>
<rect x="23" y="5" width="1" height="1" fill="#e8e8e8"/>
<rect x="25" y="5" width="1" height="1" fill="#e8e8e8"/>
<rect x="27" y="5" width="1" height="1" fill="#e8e8e8"/>
<rect x="29" y="5" width="1" height="1" fill="#e8e8e8"/>
<rect x="33" y="5" width="1" height="1" fill="#e8e8e8"/>
<rect x="35" y="5" width="1" height="1" fill="#e8e8e8"/>
<rect x="36" y="5" width="1" height="1" fill="#e8e8e8"/>
<rect x="37" y="5" width="1" height="1" fill="#e8e8e8"/>
<rect x="39" y="5" width="1" height="1" fill="#e8e8e8"/>
<rect x="3" y="6" width="1" height="1" fill="#e8e8e8"/>
<rect x="5" y="6" width="1" height="1" fill="#e8e8e8"/>
<rect x="6" y="6" width="1" height="1" fill="#e8e8e8"/>
<rect x="7" y="6" width="1" height="1" fill="#e8e8e8"/>
<rect x="9" y="6" width="1" height="1" fill="#e8e8e8"/>
<rect x="12" y="6" width="1" height="1" fill="#e8e8e8"/>
<rect x="16" y="6" width="1" height="1" fill="#e8e8e8"/>
<rect x="17" y="6" width="1" height="1" fill="#e8e8e8"/>
<rect x="19" y="6" width="1" height="1" fill="#e8e8e8"/>
<rect x="21" y="6" width="1" height="1" fill="#e8e8e8"/>
<rect x="22" y="6" width="1" height="1" fill="#e8e8e8"/>
<rect x="23" y="6" width="1" height="1" fill="#e8e8e8"/>
<rect x="26" y="6" width="1" height="1" fill="#e8e8e8"/>
<rect x="27" y="6" width="1" height="1" fill="#e8e8e8"/>
<rect x="29" y="6" width="1" height="1" fill="#e8e8e8"/>
<rect x="33" y="6" width="1" height="1" fill="#e8e8e8"/>
<rect x="35" y="6" width="1" height="1" fill="#e8e8e8"/>
<rect x="36" y="6" width="1" height="1" fill="#e8e8e8"/>
<rect x="37" y="6" width="1" height="1" fill="#e8e8e8"/>
<rect x="39" y="6" width="1" height="1" fill="#e8e8e8"/>
<rect x="3" y="7" width="1" height="1" fill="#e8e8e8"/>
<rect x="5" y="7" width="1" height="1" fill="#e8e8e8"/>
<rect x="6" y="7" width="1" height="1" fill="#e8e8e8"/>
<rect x="7" y="7" width="1" height="1" fill="#e8e8e8"/>
<rect x="9" y="7" width="1" height="1" fill="#e8e8e8"/>
<rect x="11" y="7" width="1" height="1" fill="#e8e8e8"/>
<rect x="12" y="7" width="1" height="1" fill="#e8e8e8"/>
<rect x="13" y="7" width="1" height="1" fill="#e8e8e8"/>
<rect x="14" y="7" width="1" height="1" fill="#e8e8e8"/>
<rect x="17" y="7" width="1" height="1" fill="#e8e8e8"/>
<rect x="18" y="7" width="1" height="1" fill="#e8e8e8"/>
<rect x="20" y="7" width="1" height="1" fill="#e8e8e8"/>
<rect x="21" y="7" width="1" height="1" fill="#e8e8e8"/>
<rect x="22" y="7" width="1" height="1" fill="#e8e8e8"/>
<rect x="26" y="7" width="1" height="1" fill="#e8e8e8"/>
<rect x="27" y="7" width="1" height="1" fill="#e8e8e8"/>
<rect x="28" y="7" width="1" height="1" fill="#e8e8e8"/>
<rect x="29" y="7" width="1" height="1" fill="#e8e8e8"/>
<rect x="30" y="7" width="1" height="1" fill="#e8e8e8"/>
<rect x="33" y="7" width="1" height="1" fill="#e8e8e8"/>
<rect x="35" y="7" width="1" height="1" fill="#e8e8e8"/>
<rect x="36" y="7" width="1" height="1" fill="#e8e8e8"/>
<rect x="37" y="7" width="1" height="1" fill="#e8e8e8"/>
<rect x="39" y="7" width="1" height="1" fill="#e8e8e8"/>
<rect x="3" y="8" width="1" height="1" fill="#e8e8e8"/>
<rect x="9" y="8" width="1" height="1" fill="#e8e8e8"/>
<rect x="14" y="8" width="1" height="1" fill="#e8e8e8"/>
<rect x="16" y="8" width="1" height="1" fill="#e8e8e8"/>
<rect x="17" y="8" width="1" height="1" fill="#e8e8e8"/>
<rect x="18" y="8" width="1" height="1" fill="#e8e8e8"/>
<rect x="20" y="8" width="1" height="1" fill="#e8e8e8"/>
<rect x="22" y="8" width="1" height="1" fill="#e8e8e8"/>
<rect x="23" y="8" width="1" height="1" fill="#e8e8e8"/>
<rect x="25" y="8" width="1" height="1" fill="#e8e8e8"/>
<rect x="26" y="8" width="1" height="1" fill="#e8e8e8"/>
<rect x="29" y="8" width="1" height="1" fill="#e8e8e8"/>
<rect x="30" y="8" width="1" height="1" fill="#e8e8e8"/>
<rect x="33" y="8" width="1" height="1" fill="#e8e8e8"/>
<rect x="39" y="8" width="1" height="1" fill="#e8e8e8"/>
<rect x="3" y="9" width="1" height="1" fill="#e8e8e8"/>
<rect x="4" y="9" width="1" height="1" fill="#e8e8e8"/>
<rect x="5" y="9" width="1" height="1" fill="#e8e8e8"/>
<rect x="6" y="9" width="1" height="1" fill="#e8e8e8"/>
<rect x="7" y="9" width="1" height="1" fill="#e8e8e8"/>
<rect x="8" y="9" width="1" height="1" fill="#e8e8e8"/>
<rect x="9" y="9" width="1" height="1" fill="#e8e8e8"/>
<rect x="11" y="9" width="1" height="1" fill="#e8e8e8"/>
<rect x="13" y="9" width="1" height="1" fill="#e8e8e8"/>
<rect x="15" y="9" width="1" height="1" fill="#e8e8e8"/>
<rect x="17" y="9" width="1" height="1" fill="#e8e8e8"/>
<rect x="19" y="9" width="1" height="1" fill="#e8e8e8"/>
<rect x="21" y="9" width="1" height="1" fill="#e8e8e8"/>
<rect x="23" y="9" width="1" height="1" fill="#e8e8e8"/>
<rect x="25" y="9" width="1" height="1" fill="#e8e8e8"/>
<rect x="27" y="9" width="1" height="1" fill="#e8e8e8"/>
<rect x="29" y="9" width="1" height="1" fill="#e8e8e8"/>
<rect x="31" y="9" width="1" height="1" fill="#e8e8e8"/>
<rect x="33" y="9" width="1" height="1" fill="#e8e8e8"/>
<rect x="34" y="9" width="1" height="1" fill="#e8e8e8"/>
<rect x="35" y="9" width="1" height="1" fill="#e8e8e8"/>
<rect x="36" y="9" width="1" height="1" fill="#e8e8e8"/>
<rect x="37" y="9" width="1" height="1" fill="#e8e8e8"/>
<rect x="38" y="9" width="1" height="1" fill="#e8e8e8"/>
<rect x="39" y="9" width="1" height="1" fill="#e8e8e8"/>
<rect x="12" y="10" width="1" height="1" fill="#e8e8e8"/>
<rect x="13" y="10" width="1" height="1" fill="#e8e8e8"/>
<rect x="15" y="10" width="1" height="1" fill="#e8e8e8"/>
<rect x="16" y="10" width="1" height="1" fill="#e8e8e8"/>
<rect x="18" y="10" width="1" height="1" fill="#e8e8e8"/>
<rect x="19" y="10" width="1" height="1" fill="#e8e8e8"/>
<rect x="20" y="10" width="1" height="1" fill="#e8e8e8"/>
<rect x="24" y="10" width="1" height="1" fill="#e8e8e8"/>
<rect x="28" y="10" width="1" height="1" fill="#e8e8e8"/>
<rect x="29" y="10" width="1" height="1" fill="#e8e8e8"/>
<rect x="30" y="10" width="1" height="1" fill="#e8e8e8"/>
<rect x="3" y="11" width="1" height="1" fill="#e8e8e8"/>
<rect x="5" y="11" width="1" height="1" fill="#e8e8e8"/>
<rect x="7" y="11" width="1" height="1" fill="#e8e8e8"/>
<rect x="9" y="11" width="1" height="1" fill="#e8e8e8"/>
<rect x="13" y="11" width="1" height="1" fill="#e8e8e8"/>
<rect x="14" y="11" width="1" height="1" fill="#e8e8e8"/>
<rect x="19" y="11" width="1" height="1" fill="#e8e8e8"/>
<rect x="20" y="11" width="1" height="1" fill="#e8e8e8"/>
<rect x="22" y="11" width="1" height="1" fill="#e8e8e8"/>
<rect x="23" y="11" width="1" height="1" fill="#e8e8e8"/>
<rect x="28" y="11" width="1" height="1" fill="#e8e8e8"/>
<rect x="31" y="11" width="1" height="1" fill="#e8e8e8"/>
<rect x="34" y="11" width="1" height="1" fill="#e8e8e8"/>
<rect x="37" y="11" width="1" height="1" fill="#e8e8e8"/>
<rect x="4" y="12" width="1" height="1" fill="#e8e8e8"/>
<rect x="6" y="12" width="1" height="1" fill="#e8e8e8"/>
<rect x="8" y="12" width="1" height="1" fill="#e8e8e8"/>
<rect x="10" y="12" width="1" height="1" fill="#e8e8e8"/>
<rect x="14" y="12" width="1" height="1" fill="#e8e8e8"/>
<rect x="15" y="12" width="1" height="1" fill="#e8e8e8"/>
<rect x="17" y="12" width="1" height="1" fill="#e8e8e8"/>
<rect x="18" y="12" width="1" height="1" fill="#e8e8e8"/>
<rect x="19" y="12" width="1" height="1" fill="#e8e8e8"/>
<rect x="20" y="12" width="1" height="1" fill="#e8e8e8"/>
<rect x="21" y="12" width="1" height="1" fill="#e8e8e8"/>
<rect x="23" y="12" width="1" height="1" fill="#e8e8e8"/>
<rect x="25" y="12" width="1" height="1" fill="#e8e8e8"/>
<rect x="28" y="12" width="1" height="1" fill="#e8e8e8"/>
<rect x="29" y="12" width="1" height="1" fill="#e8e8e8"/>
<rect x="31" y="12" width="1" height="1" fill="#e8e8e8"/>
<rect x="32" y="12" width="1" height="1" fill="#e8e8e8"/>
<rect x="33" y="12" width="1" height="1" fill="#e8e8e8"/>
<rect x="36" y="12" width="1" height="1" fill="#e8e8e8"/>
<rect x="37" y="12" width="1" height="1" fill="#e8e8e8"/>
<rect x="39" y="12" width="1" height="1" fill="#e8e8e8"/>
<rect x="3" y="13" width="1" height="1" fill="#e8e8e8"/>
<rect x="5" y="13" width="1" height="1" fill="#e8e8e8"/>
<rect x="7" y="13" width="1" height="1" fill="#e8e8e8"/>
<rect x="9" y="13" width="1" height="1" fill="#e8e8e8"/>
<rect x="11" y="13" width="1" height="1" fill="#e8e8e8"/>
<rect x="14" y="13" width="1" height="1" fill="#e8e8e8"/>
<rect x="15" y="13" width="1" height="1" fill="#e8e8e8"/>
<rect x="17" y="13" width="1" height="1" fill="#e8e8e8"/>
<rect x="19" y="13" width="1" height="1" fill="#e8e8e8"/>
<rect x="23" y="13" width="1" height="1" fill="#e8e8e8"/>
<rect x="24" y="13" width="1" height="1" fill="#e8e8e8"/>
<rect x="28" y="13" width="1" height="1" fill="#e8e8e8"/>
<rect x="29" y="13" width="1" height="1" fill="#e8e8e8"/>
<rect x="31" y="13" width="1" height="1" fill="#e8e8e8"/>
<rect x="32" y="13" width="1" height="1" fill="#e8e8e8"/>
<rect x="33" y="13" width="1" height="1" fill="#e8e8e8"/>
<rect x="39" y="13" width="1" height="1" fill="#e8e8e8"/>
<rect x="4" y="14" width="1" height="1" fill="#e8e8e8"/>
<rect x="6" y="14" width="1" height="1" fill="#e8e8e8"/>
<rect x="8" y="14" width="1" height="1" fill="#e8e8e8"/>
<rect x="10" y="14" width="1" height="1" fill="#e8e8e8"/>
<rect x="14" y="14" width="1" height="1" fill="#e8e8e8"/>
<rect x="15" y="14" width="1" height="1" fill="#e8e8e8"/>
<rect x="17" y="14" width="1" height="1" fill="#e8e8e8"/>
<rect x="20" y="14" width="1" height="1" fill="#e8e8e8"/>
<rect x="23" y="14" width="1" height="1" fill="#e8e8e8"/>
<rect x="24" y="14" width="1" height="1" fill="#e8e8e8"/>
<rect x="25" y="14" width="1" height="1" fill="#e8e8e8"/>
<rect x="26" y="14" width="1" height="1" fill="#e8e8e8"/>
<rect x="27" y="14" width="1" height="1" fill="#e8e8e8"/>
<rect x="28" y="14" width="1" height="1" fill="#e8e8e8"/>
<rect x="31" y="14" width="1" height="1" fill="#e8e8e8"/>
<rect x="33" y="14" width="1" height="1" fill="#e8e8e8"/>
<rect x="35" y="14" width="1" height="1" fill="#e8e8e8"/>
<rect x="36" y="14" width="1" height="1" fill="#e8e8e8"/>
<rect x="39" y="14" width="1" height="1" fill="#e8e8e8"/>
<rect x="3" y="15" width="1" height="1" fill="#e8e8e8"/>
<rect x="5" y="15" width="1" height="1" fill="#e8e8e8"/>
<rect x="7" y="15" width="1" height="1" fill="#e8e8e8"/>
<rect x="9" y="15" width="1" height="1" fill="#e8e8e8"/>
<rect x="11" y="15" width="1" height="1" fill="#e8e8e8"/>
<rect x="12" y="15" width="1" height="1" fill="#e8e8e8"/>
<rect x="16" y="15" width="1" height="1" fill="#e8e8e8"/>
<rect x="20" y="15" width="1" height="1" fill="#e8e8e8"/>
<rect x="22" y="15" width="1" height="1" fill="#e8e8e8"/>
<rect x="23" y="15" width="1" height="1" fill="#e8e8e8"/>
<rect x="26" y="15" width="1" height="1" fill="#e8e8e8"/>
<rect x="27" y="15" width="1" height="1" fill="#e8e8e8"/>
<rect x="28" y="15" width="1" height="1" fill="#e8e8e8"/>
<rect x="32" y="15" width="1" height="1" fill="#e8e8e8"/>
<rect x="33" y="15" width="1" height="1" fill="#e8e8e8"/>
<rect x="39" y="15" width="1" height="1" fill="#e8e8e8"/>
<rect x="4" y="16" width="1" height="1" fill="#e8e8e8"/>
<rect x="6" y="16" width="1" height="1" fill="#e8e8e8"/>
<rect x="8" y="16" width="1" height="1" fill="#e8e8e8"/>
<rect x="10" y="16" width="1" height="1" fill="#e8e8e8"/>
<rect x="12" y="16" width="1" height="1" fill="#e8e8e8"/>
<rect x="14" y="16" width="1" height="1" fill="#e8e8e8"/>
<rect x="15" y="16" width="1" height="1" fill="#e8e8e8"/>
<rect x="16" y="16" width="1" height="1" fill="#e8e8e8"/>
<rect x="18" y="16" width="1" height="1" fill="#e8e8e8"/>
<rect x="19" y="16" width="1" height="1" fill="#e8e8e8"/>
<rect x="23" y="16" width="1" height="1" fill="#e8e8e8"/>
<rect x="28" y="16" width="1" height="1" fill="#e8e8e8"/>
<rect x="29" y="16" width="1" height="1" fill="#e8e8e8"/>
<rect x="31" y="16" width="1" height="1" fill="#e8e8e8"/>
<rect x="32" y="16" width="1" height="1" fill="#e8e8e8"/>
<rect x="33" y="16" width="1" height="1" fill="#e8e8e8"/>
<rect x="34" y="16" width="1" height="1" fill="#e8e8e8"/>
<rect x="37" y="16" width="1" height="1" fill="#e8e8e8"/>
<rect x="39" y="16" width="1" height="1" fill="#e8e8e8"/>
<rect x="3" y="17" width="1" height="1" fill="#e8e8e8"/>
<rect x="5" y="17" width="1" height="1" fill="#e8e8e8"/>
<rect x="7" y="17" width="1" height="1" fill="#e8e8e8"/>
<rect x="9" y="17" width="1" height="1" fill="#e8e8e8"/>
<rect x="11" y="17" width="1" height="1" fill="#e8e8e8"/>
<rect x="12" y="17" width="1" height="1" fill="#e8e8e8"/>
<rect x="13" y="17" width="1" height="1" fill="#e8e8e8"/>
<rect x="14" y="17" width="1" height="1" fill="#e8e8e8"/>
<rect x="16" y="17" width="1" height="1" fill="#e8e8e8"/>
<rect x="18" y="17" width="1" height="1" fill="#e8e8e8"/>
<rect x="25" y="17" width="1" height="1" fill="#e8e8e8"/>
<rect x="27" y="17" width="1" height="1" fill="#e8e8e8"/>
<rect x="34" y="17" width="1" height="1" fill="#e8e8e8"/>
<rect x="36" y="17" width="1" height="1" fill="#e8e8e8"/>
<rect x="38" y="17" width="1" height="1" fill="#e8e8e8"/>
<rect x="39" y="17" width="1" height="1" fill="#e8e8e8"/>
<rect x="4" y="18" width="1" height="1" fill="#e8e8e8"/>
<rect x="6" y="18" width="1" height="1" fill="#e8e8e8"/>
<rect x="8" y="18" width="1" height="1" fill="#e8e8e8"/>
<rect x="10" y="18" width="1" height="1" fill="#e8e8e8"/>
<rect x="13" y="18" width="1" height="1" fill="#e8e8e8"/>
<rect x="15" y="18" width="1" height="1" fill="#e8e8e8"/>
<rect x="19" y="18" width="1" height="1" fill="#e8e8e8"/>
<rect x="20" y="18" width="1" height="1" fill="#e8e8e8"/>
<rect x="21" y="18" width="1" height="1" fill="#e8e8e8"/>
<rect x="22" y="18" width="1" height="1" fill="#e8e8e8"/>
<rect x="24" y="18" width="1" height="1" fill="#e8e8e8"/>
<rect x="26" y="18" width="1" height="1" fill="#e8e8e8"/>
<rect x="28" y="18" width="1" height="1" fill="#e8e8e8"/>
<rect x="30" y="18" width="1" height="1" fill="#e8e8e8"/>
<rect x="31" y="18" width="1" height="1" fill="#e8e8e8"/>
<rect x="35" y="18" width="1" height="1" fill="#e8e8e8"/>
<rect x="36" y="18" width="1" height="1" fill="#e8e8e8"/>
<rect x="38" y="18" width="1" height="1" fill="#e8e8e8"/>
<rect x="3" y="19" width="1" height="1" fill="#e8e8e8"/>
<rect x="5" y="19" width="1" height="1" fill="#e8e8e8"/>
<rect x="7" y="19" width="1" height="1" fill="#e8e8e8"/>
<rect x="9" y="19" width="1" height="1" fill="#e8e8e8"/>
<rect x="11" y="19" width="1" height="1" fill="#e8e8e8"/>
<rect x="12" y="19" width="1" height="1" fill="#e8e8e8"/>
<rect x="13" y="19" width="1" height="1" fill="#e8e8e8"/>
<rect x="14" y="19" width="1" height="1" fill="#e8e8e8"/>
<rect x="16" y="19" width="1" height="1" fill="#e8e8e8"/>
<rect x="18" y="19" width="1" height="1" fill="#e8e8e8"/>
<rect x="20" y="19" width="1" height="1" fill="#e8e8e8"/>
<rect x="22" y="19" width="1" height="1" fill="#e8e8e8"/>
<rect x="23" y="19" width="1" height="1" fill="#e8e8e8"/>
<rect x="24" y="19" width="1" height="1" fill="#e8e8e8"/>
<rect x="26" y="19" width="1" height="1" fill="#e8e8e8"/>
<rect x="27" y="19" width="1" height="1" fill="#e8e8e8"/>
<rect x="28" y="19" width="1" height="1" fill="#e8e8e8"/>
<rect x="30" y="19" width="1" height="1" fill="#e8e8e8"/>
<rect x="31" y="19" width="1" height="1" fill="#e8e8e8"/>
<rect x="32" y="19" width="1" height="1" fill="#e8e8e8"/>
<rect x="33" y="19" width="1" height="1" fill="#e8e8e8"/>
<rect x="39" y="19" width="1" height="1" fill="#e8e8e8"/>
<rect x="4" y="20" width="1" height="1" fill="#e8e8e8"/>
<rect x="6" y="20" width="1" height="1" fill="#e8e8e8"/>
<rect x="8" y="20" width="1" height="1" fill="#e8e8e8"/>
<rect x="10" y="20" width="1" height="1" fill="#e8e8e8"/>
<rect x="12" y="20" width="1" height="1" fill="#e8e8e8"/>
<rect x="15" y="20" width="1" height="1" fill="#e8e8e8"/>
<rect x="16" y="20" width="1" height="1" fill="#e8e8e8"/>
<rect x="17" y="20" width="1" height="1" fill="#e8e8e8"/>
<rect x="18" y="20" width="1" height="1" fill="#e8e8e8"/>
<rect x="23" y="20" width="1" height="1" fill="#e8e8e8"/>
<rect x="24" y="20" width="1" height="1" fill="#e8e8e8"/>
<rect x="27" y="20" width="1" height="1" fill="#e8e8e8"/>
<rect x="28" y="20" width="1" height="1" fill="#e8e8e8"/>
<rect x="31" y="20" width="1" height="1" fill="#e8e8e8"/>
<rect x="33" y="20" width="1" height="1" fill="#e8e8e8"/>
<rect x="37" y="20" width="1" height="1" fill="#e8e8e8"/>
<rect x="39" y="20" width="1" height="1" fill="#e8e8e8"/>
<rect x="3" y="21" width="1" height="1" fill="#e8e8e8"/>
<rect x="5" y="21" width="1" height="1" fill="#e8e8e8"/>
<rect x="7" y="21" width="1" height="1" fill="#e8e8e8"/>
<rect x="9" y="21" width="1" height="1" fill="#e8e8e8"/>
<rect x="11" y="21" width="1" height="1" fill="#e8e8e8"/>
<rect x="15" y="21" width="1" height="1" fill="#e8e8e8"/>
<rect x="18" y="21" width="1" height="1" fill="#e8e8e8"/>
<rect x="19" y="21" width="1" height="1" fill="#e8e8e8"/>
<rect x="23" y="21" width="1" height="1" fill="#e8e8e8"/>
<rect x="25" y="21" width="1" height="1" fill="#e8e8e8"/>
<rect x="28" y="21" width="1" height="1" fill="#e8e8e8"/>
<rect x="32" y="21" width="1" height="1" fill="#e8e8e8"/>
<rect x="33" y="21" width="1" height="1" fill="#e8e8e8"/>
<rect x="34" y="21" width="1" height="1" fill="#e8e8e8"/>
<rect x="35" y="21" width="1" height="1" fill="#e8e8e8"/>
<rect x="36" y="21" width="1" height="1" fill="#e8e8e8"/>
<rect x="38" y="21" width="1" height="1" fill="#e8e8e8"/>
<rect x="39" y="21" width="1" height="1" fill="#e8e8e8"/>
<rect x="4" y="22" width="1" height="1" fill="#e8e8e8"/>
<rect x="6" y="22" width="1" height="1" fill="#e8e8e8"/>
<rect x="8" y="22" width="1" height="1" fill="#e8e8e8"/>
<rect x="10" y="22" width="1" height="1" fill="#e8e8e8"/>
<rect x="12" y="22" width="1" height="1" fill="#e8e8e8"/>
<rect x="13" y="22" width="1" height="1" fill="#e8e8e8"/>
<rect x="14" y="22" width="1" height="1" fill="#e8e8e8"/>
<rect x="16" y="22" width="1" height="1" fill="#e8e8e8"/>
<rect x="17" y="22" width="1" height="1" fill="#e8e8e8"/>
<rect x="18" y="22" width="1" height="1" fill="#e8e8e8"/>
<rect x="19" y="22" width="1" height="1" fill="#e8e8e8"/>
<rect x="20" y="22" width="1" height="1" fill="#e8e8e8"/>
<rect x="22" y="22" width="1" height="1" fill="#e8e8e8"/>
<rect x="23" y="22" width="1" height="1" fill="#e8e8e8"/>
<rect x="24" y="22" width="1" height="1" fill="#e8e8e8"/>
<rect x="25" y="22" width="1" height="1" fill="#e8e8e8"/>
<rect x="28" y="22" width="1" height="1" fill="#e8e8e8"/>
<rect x="31" y="22" width="1" height="1" fill="#e8e8e8"/>
<rect x="32" y="22" width="1" height="1" fill="#e8e8e8"/>
<rect x="34" y="22" width="1" height="1" fill="#e8e8e8"/>
<rect x="35" y="22" width="1" height="1" fill="#e8e8e8"/>
<rect x="38" y="22" width="1" height="1" fill="#e8e8e8"/>
<rect x="3" y="23" width="1" height="1" fill="#e8e8e8"/>
<rect x="5" y="23" width="1" height="1" fill="#e8e8e8"/>
<rect x="7" y="23" width="1" height="1" fill="#e8e8e8"/>
<rect x="9" y="23" width="1" height="1" fill="#e8e8e8"/>
<rect x="11" y="23" width="1" height="1" fill="#e8e8e8"/>
<rect x="12" y="23" width="1" height="1" fill="#e8e8e8"/>
<rect x="13" y="23" width="1" height="1" fill="#e8e8e8"/>
<rect x="15" y="23" width="1" height="1" fill="#e8e8e8"/>
<rect x="16" y="23" width="1" height="1" fill="#e8e8e8"/>
<rect x="18" y="23" width="1" height="1" fill="#e8e8e8"/>
<rect x="21" y="23" width="1" height="1" fill="#e8e8e8"/>
<rect x="22" y="23" width="1" height="1" fill="#e8e8e8"/>
<rect x="23" y="23" width="1" height="1" fill="#e8e8e8"/>
<rect x="24" y="23" width="1" height="1" fill="#e8e8e8"/>
<rect x="27" y="23" width="1" height="1" fill="#e8e8e8"/>
<rect x="28" y="23" width="1" height="1" fill="#e8e8e8"/>
<rect x="30" y="23" width="1" height="1" fill="#e8e8e8"/>
<rect x="31" y="23" width="1" height="1" fill="#e8e8e8"/>
<rect x="32" y="23" width="1" height="1" fill="#e8e8e8"/>
<rect x="33" y="23" width="1" height="1" fill="#e8e8e8"/>
<rect x="36" y="23" width="1" height="1" fill="#e8e8e8"/>
<rect x="38" y="23" width="1" height="1" fill="#e8e8e8"/>
<rect x="39" y="23" width="1" height="1" fill="#e8e8e8"/>
<rect x="4" y="24" width="1" height="1" fill="#e8e8e8"/>
<rect x="6" y="24" width="1" height="1" fill="#e8e8e8"/>
<rect x="8" y="24" width="1" height="1" fill="#e8e8e8"/>
<rect x="10" y="24" width="1" height="1" fill="#e8e8e8"/>
<rect x="15" y="24" width="1" height="1" fill="#e8e8e8"/>
<rect x="16" y="24" width="1" height="1" fill="#e8e8e8"/>
<rect x="18" y="24" width="1" height="1" fill="#e8e8e8"/>
<rect x="23" y="24" width="1" height="1" fill="#e8e8e8"/>
<rect x="24" y="24" width="1" height="1" fill="#e8e8e8"/>
<rect x="27" y="24" width="1" height="1" fill="#e8e8e8"/>
<rect x="32" y="24" width="1" height="1" fill="#e8e8e8"/>
<rect x="33" y="24" width="1" height="1" fill="#e8e8e8"/>
<rect x="36" y="24" width="1" height="1" fill="#e8e8e8"/>
<rect x="39" y="24" width="1" height="1" fill="#e8e8e8"/>
<rect x="3" y="25" width="1" height="1" fill="#e8e8e8"/>
<rect x="5" y="25" width="1" height="1" fill="#e8e8e8"/>
<rect x="7" y="25" width="1" height="1" fill="#e8e8e8"/>
<rect x="9" y="25" width="1" height="1" fill="#e8e8e8"/>
<rect x="11" y="25" width="1" height="1" fill="#e8e8e8"/>
<rect x="15" y="25" width="1" height="1" fill="#e8e8e8"/>
<rect x="17" y="25" width="1" height="1" fill="#e8e8e8"/>
<rect x="19" y="25" width="1" height="1" fill="#e8e8e8"/>
<rect x="20" y="25" width="1" height="1" fill="#e8e8e8"/>
<rect x="21" y="25" width="1" height="1" fill="#e8e8e8"/>
<rect x="24" y="25" width="1" height="1" fill="#e8e8e8"/>
<rect x="25" y="25" width="1" height="1" fill="#e8e8e8"/>
<rect x="27" y="25" width="1" height="1" fill="#e8e8e8"/>
<rect x="28" y="25" width="1" height="1" fill="#e8e8e8"/>
<rect x="38" y="25" width="1" height="1" fill="#e8e8e8"/>
<rect x="39" y="25" width="1" height="1" fill="#e8e8e8"/>
<rect x="4" y="26" width="1" height="1" fill="#e8e8e8"/>
<rect x="6" y="26" width="1" height="1" fill="#e8e8e8"/>
<rect x="8" y="26" width="1" height="1" fill="#e8e8e8"/>
<rect x="10" y="26" width="1" height="1" fill="#e8e8e8"/>
<rect x="12" y="26" width="1" height="1" fill="#e8e8e8"/>
<rect x="14" y="26" width="1" height="1" fill="#e8e8e8"/>
<rect x="17" y="26" width="1" height="1" fill="#e8e8e8"/>
<rect x="23" y="26" width="1" height="1" fill="#e8e8e8"/>
<rect x="24" y="26" width="1" height="1" fill="#e8e8e8"/>
<rect x="25" y="26" width="1" height="1" fill="#e8e8e8"/>
<rect x="28" y="26" width="1" height="1" fill="#e8e8e8"/>
<rect x="29" y="26" width="1" height="1" fill="#e8e8e8"/>
<rect x="31" y="26" width="1" height="1" fill="#e8e8e8"/>
<rect x="32" y="26" width="1" height="1" fill="#e8e8e8"/>
<rect x="34" y="26" width="1" height="1" fill="#e8e8e8"/>
<rect x="38" y="26" width="1" height="1" fill="#e8e8e8"/>
<rect x="3" y="27" width="1" height="1" fill="#e8e8e8"/>
<rect x="5" y="27" width="1" height="1" fill="#e8e8e8"/>
<rect x="7" y="27" width="1" height="1" fill="#e8e8e8"/>
<rect x="9" y="27" width="1" height="1" fill="#e8e8e8"/>
<rect x="11" y="27" width="1" height="1" fill="#e8e8e8"/>
<rect x="12" y="27" width="1" height="1" fill="#e8e8e8"/>
<rect x="14" y="27" width="1" height="1" fill="#e8e8e8"/>
<rect x="16" y="27" width="1" height="1" fill="#e8e8e8"/>
<rect x="18" y="27" width="1" height="1" fill="#e8e8e8"/>
<rect x="20" y="27" width="1" height="1" fill="#e8e8e8"/>
<rect x="21" y="27" width="1" height="1" fill="#e8e8e8"/>
<rect x="22" y="27" width="1" height="1" fill="#e8e8e8"/>
<rect x="23" y="27" width="1" height="1" fill="#e8e8e8"/>
<rect x="24" y="27" width="1" height="1" fill="#e8e8e8"/>
<rect x="28" y="27" width="1" height="1" fill="#e8e8e8"/>
<rect x="30" y="27" width="1" height="1" fill="#e8e8e8"/>
<rect x="31" y="27" width="1" height="1" fill="#e8e8e8"/>
<rect x="32" y="27" width="1" height="1" fill="#e8e8e8"/>
<rect x="33" y="27" width="1" height="1" fill="#e8e8e8"/>
<rect x="38" y="27" width="1" height="1" fill="#e8e8e8"/>
<rect x="39" y="27" width="1" height="1" fill="#e8e8e8"/>
<rect x="4" y="28" width="1" height="1" fill="#e8e8e8"/>
<rect x="6" y="28" width="1" height="1" fill="#e8e8e8"/>
<rect x="8" y="28" width="1" height="1" fill="#e8e8e8"/>
<rect x="10" y="28" width="1" height="1" fill="#e8e8e8"/>
<rect x="12" y="28" width="1" height="1" fill="#e8e8e8"/>
<rect x="16" y="28" width="1" height="1" fill="#e8e8e8"/>
<rect x="17" y="28" width="1" height="1" fill="#e8e8e8"/>
<rect x="20" y="28" width="1" height="1" fill="#e8e8e8"/>
<rect x="27" y="28" width="1" height="1" fill="#e8e8e8"/>
<rect x="31" y="28" width="1" height="1" fill="#e8e8e8"/>
<rect x="33" y="28" width="1" height="1" fill="#e8e8e8"/>
<rect x="39" y="28" width="1" height="1" fill="#e8e8e8"/>
<rect x="3" y="29" width="1" height="1" fill="#e8e8e8"/>
<rect x="5" y="29" width="1" height="1" fill="#e8e8e8"/>
<rect x="7" y="29" width="1" height="1" fill="#e8e8e8"/>
<rect x="9" y="29" width="1" height="1" fill="#e8e8e8"/>
<rect x="11" y="29" width="1" height="1" fill="#e8e8e8"/>
<rect x="12" y="29" width="1" height="1" fill="#e8e8e8"/>
<rect x="13" y="29" width="1" height="1" fill="#e8e8e8"/>
<rect x="15" y="29" width="1" height="1" fill="#e8e8e8"/>
<rect x="16" y="29" width="1" height="1" fill="#e8e8e8"/>
<rect x="17" y="29" width="1" height="1" fill="#e8e8e8"/>
<rect x="20" y="29" width="1" height="1" fill="#e8e8e8"/>
<rect x="21" y="29" width="1" height="1" fill="#e8e8e8"/>
<rect x="23" y="29" width="1" height="1" fill="#e8e8e8"/>
<rect x="24" y="29" width="1" height="1" fill="#e8e8e8"/>
<rect x="25" y="29" width="1" height="1" fill="#e8e8e8"/>
<rect x="32" y="29" width="1" height="1" fill="#e8e8e8"/>
<rect x="33" y="29" width="1" height="1" fill="#e8e8e8"/>
<rect x="36" y="29" width="1" height="1" fill="#e8e8e8"/>
<rect x="38" y="29" width="1" height="1" fill="#e8e8e8"/>
<rect x="39" y="29" width="1" height="1" fill="#e8e8e8"/>
<rect x="4" y="30" width="1" height="1" fill="#e8e8e8"/>
<rect x="6" y="30" width="1" height="1" fill="#e8e8e8"/>
<rect x="8" y="30" width="1" height="1" fill="#e8e8e8"/>
<rect x="10" y="30" width="1" height="1" fill="#e8e8e8"/>
<rect x="12" y="30" width="1" height="1" fill="#e8e8e8"/>
<rect x="15" y="30" width="1" height="1" fill="#e8e8e8"/>
<rect x="16" y="30" width="1" height="1" fill="#e8e8e8"/>
<rect x="17" y="30" width="1" height="1" fill="#e8e8e8"/>
<rect x="18" y="30" width="1" height="1" fill="#e8e8e8"/>
<rect x="20" y="30" width="1" height="1" fill="#e8e8e8"/>
<rect x="21" y="30" width="1" height="1" fill="#e8e8e8"/>
<rect x="23" y="30" width="1" height="1" fill="#e8e8e8"/>
<rect x="24" y="30" width="1" height="1" fill="#e8e8e8"/>
<rect x="25" y="30" width="1" height="1" fill="#e8e8e8"/>
<rect x="26" y="30" width="1" height="1" fill="#e8e8e8"/>
<rect x="28" y="30" width="1" height="1" fill="#e8e8e8"/>
<rect x="30" y="30" width="1" height="1" fill="#e8e8e8"/>
<rect x="35" y="30" width="1" height="1" fill="#e8e8e8"/>
<rect x="38" y="30" width="1" height="1" fill="#e8e8e8"/>
<rect x="3" y="31" width="1" height="1" fill="#e8e8e8"/>
<rect x="5" y="31" width="1" height="1" fill="#e8e8e8"/>
<rect x="9" y="31" width="1" height="1" fill="#e8e8e8"/>
<rect x="11" y="31" width="1" height="1" fill="#e8e8e8"/>
<rect x="12" y="31" width="1" height="1" fill="#e8e8e8"/>
<rect x="13" y="31" width="1" height="1" fill="#e8e8e8"/>
<rect x="14" y="31" width="1" height="1" fill="#e8e8e8"/>
<rect x="15" y="31" width="1" height="1" fill="#e8e8e8"/>
<rect x="16" y="31" width="1" height="1" fill="#e8e8e8"/>
<rect x="21" y="31" width="1" height="1" fill="#e8e8e8"/>
<rect x="22" y="31" width="1" height="1" fill="#e8e8e8"/>
<rect x="23" y="31" width="1" height="1" fill="#e8e8e8"/>
<rect x="24" y="31" width="1" height="1" fill="#e8e8e8"/>
<rect x="27" y="31" width="1" height="1" fill="#e8e8e8"/>
<rect x="28" y="31" width="1" height="1" fill="#e8e8e8"/>
<rect x="30" y="31" width="1" height="1" fill="#e8e8e8"/>
<rect x="31" y="31" width="1" height="1" fill="#e8e8e8"/>
<rect x="32" y="31" width="1" height="1" fill="#e8e8e8"/>
<rect x="33" y="31" width="1" height="1" fill="#e8e8e8"/>
<rect x="34" y="31" width="1" height="1" fill="#e8e8e8"/>
<rect x="35" y="31" width="1" height="1" fill="#e8e8e8"/>
<rect x="36" y="31" width="1" height="1" fill="#e8e8e8"/>
<rect x="11" y="32" width="1" height="1" fill="#e8e8e8"/>
<rect x="16" y="32" width="1" height="1" fill="#e8e8e8"/>
<rect x="17" y="32" width="1" height="1" fill="#e8e8e8"/>
<rect x="18" y="32" width="1" height="1" fill="#e8e8e8"/>
<rect x="21" y="32" width="1" height="1" fill="#e8e8e8"/>
<rect x="23" y="32" width="1" height="1" fill="#e8e8e8"/>
<rect x="24" y="32" width="1" height="1" fill="#e8e8e8"/>
<rect x="27" y="32" width="1" height="1" fill="#e8e8e8"/>
<rect x="30" y="32" width="1" height="1" fill="#e8e8e8"/>
<rect x="31" y="32" width="1" height="1" fill="#e8e8e8"/>
<rect x="35" y="32" width="1" height="1" fill="#e8e8e8"/>
<rect x="36" y="32" width="1" height="1" fill="#e8e8e8"/>
<rect x="38" y="32" width="1" height="1" fill="#e8e8e8"/>
<rect x="39" y="32" width="1" height="1" fill="#e8e8e8"/>
<rect x="3" y="33" width="1" height="1" fill="#e8e8e8"/>
<rect x="4" y="33" width="1" height="1" fill="#e8e8e8"/>
<rect x="5" y="33" width="1" height="1" fill="#e8e8e8"/>
<rect x="6" y="33" width="1" height="1" fill="#e8e8e8"/>
<rect x="7" y="33" width="1" height="1" fill="#e8e8e8"/>
<rect x="8" y="33" width="1" height="1" fill="#e8e8e8"/>
<rect x="9" y="33" width="1" height="1" fill="#e8e8e8"/>
<rect x="14" y="33" width="1" height="1" fill="#e8e8e8"/>
<rect x="15" y="33" width="1" height="1" fill="#e8e8e8"/>
<rect x="17" y="33" width="1" height="1" fill="#e8e8e8"/>
<rect x="18" y="33" width="1" height="1" fill="#e8e8e8"/>
<rect x="19" y="33" width="1" height="1" fill="#e8e8e8"/>
<rect x="20" y="33" width="1" height="1" fill="#e8e8e8"/>
<rect x="25" y="33" width="1" height="1" fill="#e8e8e8"/>
<rect x="29" y="33" width="1" height="1" fill="#e8e8e8"/>
<rect x="30" y="33" width="1" height="1" fill="#e8e8e8"/>
<rect x="31" y="33" width="1" height="1" fill="#e8e8e8"/>
<rect x="33" y="33" width="1" height="1" fill="#e8e8e8"/>
<rect x="35" y="33" width="1" height="1" fill="#e8e8e8"/>
<rect x="38" y="33" width="1" height="1" fill="#e8e8e8"/>
<rect x="39" y="33" width="1" height="1" fill="#e8e8e8"/>
<rect x="3" y="34" width="1" height="1" fill="#e8e8e8"/>
<rect x="9" y="34" width="1" height="1" fill="#e8e8e8"/>
<rect x="13" y="34" width="1" height="1" fill="#e8e8e8"/>
<rect x="14" y="34" width="1" height="1" fill="#e8e8e8"/>
<rect x="15" y="34" width="1" height="1" fill="#e8e8e8"/>
<rect x="16" y="34" width="1" height="1" fill="#e8e8e8"/>
<rect x="17" y="34" width="1" height="1" fill="#e8e8e8"/>
<rect x="18" y="34" width="1" height="1" fill="#e8e8e8"/>
<rect x="21" y="34" width="1" height="1" fill="#e8e8e8"/>
<rect x="23" y="34" width="1" height="1" fill="#e8e8e8"/>
<rect x="24" y="34" width="1" height="1" fill="#e8e8e8"/>
<rect x="25" y="34" width="1" height="1" fill="#e8e8e8"/>
<rect x="26" y="34" width="1" height="1" fill="#e8e8e8"/>
<rect x="27" y="34" width="1" height="1" fill="#e8e8e8"/>
<rect x="28" y="34" width="1" height="1" fill="#e8e8e8"/>
<rect x="29" y="34" width="1" height="1" fill="#e8e8e8"/>
<rect x="31" y="34" width="1" height="1" fill="#e8e8e8"/>
<rect x="35" y="34" width="1" height="1" fill="#e8e8e8"/>
<rect x="3" y="35" width="1" height="1" fill="#e8e8e8"/>
<rect x="5" y="35" width="1" height="1" fill="#e8e8e8"/>
<rect x="6" y="35" width="1" height="1" fill="#e8e8e8"/>
<rect x="7" y="35" width="1" height="1" fill="#e8e8e8"/>
<rect x="9" y="35" width="1" height="1" fill="#e8e8e8"/>
<rect x="11" y="35" width="1" height="1" fill="#e8e8e8"/>
<rect x="14" y="35" width="1" height="1" fill="#e8e8e8"/>
<rect x="15" y="35" width="1" height="1" fill="#e8e8e8"/>
<rect x="16" y="35" width="1" height="1" fill="#e8e8e8"/>
<rect x="18" y="35" width="1" height="1" fill="#e8e8e8"/>
<rect x="20" y="35" width="1" height="1" fill="#e8e8e8"/>
<rect x="22" y="35" width="1" height="1" fill="#e8e8e8"/>
<rect x="23" y="35" width="1" height="1" fill="#e8e8e8"/>
<rect x="24" y="35" width="1" height="1" fill="#e8e8e8"/>
<rect x="26" y="35" width="1" height="1" fill="#e8e8e8"/>
<rect x="27" y="35" width="1" height="1" fill="#e8e8e8"/>
<rect x="28" y="35" width="1" height="1" fill="#e8e8e8"/>
<rect x="31" y="35" width="1" height="1" fill="#e8e8e8"/>
<rect x="32" y="35" width="1" height="1" fill="#e8e8e8"/>
<rect x="33" y="35" width="1" height="1" fill="#e8e8e8"/>
<rect x="34" y="35" width="1" height="1" fill="#e8e8e8"/>
<rect x="35" y="35" width="1" height="1" fill="#e8e8e8"/>
<rect x="3" y="36" width="1" height="1" fill="#e8e8e8"/>
<rect x="5" y="36" width="1" height="1" fill="#e8e8e8"/>
<rect x="6" y="36" width="1" height="1" fill="#e8e8e8"/>
<rect x="7" y="36" width="1" height="1" fill="#e8e8e8"/>
<rect x="9" y="36" width="1" height="1" fill="#e8e8e8"/>
<rect x="12" y="36" width="1" height="1" fill="#e8e8e8"/>
<rect x="14" y="36" width="1" height="1" fill="#e8e8e8"/>
<rect x="15" y="36" width="1" height="1" fill="#e8e8e8"/>
<rect x="17" y="36" width="1" height="1" fill="#e8e8e8"/>
<rect x="18" y="36" width="1" height="1" fill="#e8e8e8"/>
<rect x="19" y="36" width="1" height="1" fill="#e8e8e8"/>
<rect x="21" y="36" width="1" height="1" fill="#e8e8e8"/>
<rect x="23" y="36" width="1" height="1" fill="#e8e8e8"/>
<rect x="24" y="36" width="1" height="1" fill="#e8e8e8"/>
<rect x="25" y="36" width="1" height="1" fill="#e8e8e8"/>
<rect x="26" y="36" width="1" height="1" fill="#e8e8e8"/>
<rect x="27" y="36" width="1" height="1" fill="#e8e8e8"/>
<rect x="30" y="36" width="1" height="1" fill="#e8e8e8"/>
<rect x="31" y="36" width="1" height="1" fill="#e8e8e8"/>
<rect x="34" y="36" width="1" height="1" fill="#e8e8e8"/>
<rect x="35" y="36" width="1" height="1" fill="#e8e8e8"/>
<rect x="38" y="36" width="1" height="1" fill="#e8e8e8"/>
<rect x="3" y="37" width="1" height="1" fill="#e8e8e8"/>
<rect x="5" y="37" width="1" height="1" fill="#e8e8e8"/>
<rect x="6" y="37" width="1" height="1" fill="#e8e8e8"/>
<rect x="7" y="37" width="1" height="1" fill="#e8e8e8"/>
<rect x="9" y="37" width="1" height="1" fill="#e8e8e8"/>
<rect x="12" y="37" width="1" height="1" fill="#e8e8e8"/>
<rect x="16" y="37" width="1" height="1" fill="#e8e8e8"/>
<rect x="17" y="37" width="1" height="1" fill="#e8e8e8"/>
<rect x="20" y="37" width="1" height="1" fill="#e8e8e8"/>
<rect x="23" y="37" width="1" height="1" fill="#e8e8e8"/>
<rect x="28" y="37" width="1" height="1" fill="#e8e8e8"/>
<rect x="30" y="37" width="1" height="1" fill="#e8e8e8"/>
<rect x="34" y="37" width="1" height="1" fill="#e8e8e8"/>
<rect x="35" y="37" width="1" height="1" fill="#e8e8e8"/>
<rect x="36" y="37" width="1" height="1" fill="#e8e8e8"/>
<rect x="37" y="37" width="1" height="1" fill="#e8e8e8"/>
<rect x="38" y="37" width="1" height="1" fill="#e8e8e8"/>
<rect x="39" y="37" width="1" height="1" fill="#e8e8e8"/>
<rect x="3" y="38" width="1" height="1" fill="#e8e8e8"/>
<rect x="9" y="38" width="1" height="1" fill="#e8e8e8"/>
<rect x="11" y="38" width="1" height="1" fill="#e8e8e8"/>
<rect x="12" y="38" width="1" height="1" fill="#e8e8e8"/>
<rect x="13" y="38" width="1" height="1" fill="#e8e8e8"/>
<rect x="17" y="38" width="1" height="1" fill="#e8e8e8"/>
<rect x="19" y="38" width="1" height="1" fill="#e8e8e8"/>
<rect x="20" y="38" width="1" height="1" fill="#e8e8e8"/>
<rect x="22" y="38" width="1" height="1" fill="#e8e8e8"/>
<rect x="24" y="38" width="1" height="1" fill="#e8e8e8"/>
<rect x="26" y="38" width="1" height="1" fill="#e8e8e8"/>
<rect x="27" y="38" width="1" height="1" fill="#e8e8e8"/>
<rect x="28" y="38" width="1" height="1" fill="#e8e8e8"/>
<rect x="29" y="38" width="1" height="1" fill="#e8e8e8"/>
<rect x="30" y="38" width="1" height="1" fill="#e8e8e8"/>
<rect x="31" y="38" width="1" height="1" fill="#e8e8e8"/>
<rect x="32" y="38" width="1" height="1" fill="#e8e8e8"/>
<rect x="38" y="38" width="1" height="1" fill="#e8e8e8"/>
<rect x="3" y="39" width="1" height="1" fill="#e8e8e8"/>
<rect x="4" y="39" width="1" height="1" fill="#e8e8e8"/>
<rect x="5" y="39" width="1" height="1" fill="#e8e8e8"/>
<rect x="6" y="39" width="1" height="1" fill="#e8e8e8"/>
<rect x="7" y="39" width="1" height="1" fill="#e8e8e8"/>
<rect x="8" y="39" width="1" height="1" fill="#e8e8e8"/>
<rect x="9" y="39" width="1" height="1" fill="#e8e8e8"/>
<rect x="16" y="39" width="1" height="1" fill="#e8e8e8"/>
<rect x="17" y="39" width="1" height="1" fill="#e8e8e8"/>
<rect x="18" y="39" width="1" height="1" fill="#e8e8e8"/>
<rect x="21" y="39" width="1" height="1" fill="#e8e8e8"/>
<rect x="22" y="39" width="1" height="1" fill="#e8e8e8"/>
<rect x="23" y="39" width="1" height="1" fill="#e8e8e8"/>
<rect x="24" y="39" width="1" height="1" fill="#e8e8e8"/>
<rect x="26" y="39" width="1" height="1" fill="#e8e8e8"/>
<rect x="27" y="39" width="1" height="1" fill="#e8e8e8"/>
<rect x="28" y="39" width="1" height="1" fill="#e8e8e8"/>
<rect x="29" y="39" width="1" height="1" fill="#e8e8e8"/>
<rect x="31" y="39" width="1" height="1" fill="#e8e8e8"/>
<rect x="34" y="39" width="1" height="1" fill="#e8e8e8"/>
<rect x="35" y="39" width="1" height="1" fill="#e8e8e8"/>
<rect x="38" y="39" width="1" height="1" fill="#e8e8e8"/>
<rect x="39" y="39" width="1" height="1" fill="#e8e8e8"/>
</svg>